<?xml version="1.0" encoding="iso-8859-1"?>
<!-- Generator: Adobe Illustrator 19.0.0, SVG Export Plug-In . SVG Version: 6.00 Build 0)  -->
<svg width="25" version="1.1" id="Capa_1" xmlns="http://www.w3.org/2000/svg" xmlns:xlink="http://www.w3.org/1999/xlink" x="0px" y="0px"
	 viewBox="0 0 380 380" style="enable-background:new 0 0 380 380;" xml:space="preserve">
<g id="XMLID_237_">
	<path id="XMLID_855_" style="fill:#FF5023;" d="M80.304,190H0c0,34.608,9.258,67.052,25.424,94.999l0.049-0.028L80.304,190z"/>
	<path id="XMLID_856_" style="fill:#FF9811;" d="M25.473,95.029l-0.049-0.028C9.258,122.948,0,155.392,0,190h80.304L25.473,95.029z"
		/>
	<path id="XMLID_857_" style="fill:#F7AED1;" d="M190,0c-34.607,0-67.05,9.257-94.996,25.423l40.154,69.565L190,0z"/>
	<path id="XMLID_858_" style="fill:#EA348B;" d="M25.456,95h109.695l0.007-0.012L95.004,25.423
		C66.16,42.108,42.11,66.157,25.424,95.001l0.049,0.028L25.456,95z"/>
	<path id="XMLID_493_" style="fill:#7C84E8;" d="M244.849,95h109.695l-0.017,0.029l0.049-0.028
		c-16.687-28.844-40.736-52.893-69.58-69.578l-40.154,69.565L244.849,95z"/>
	<path id="XMLID_859_" style="fill:#933EC5;" d="M284.996,25.423C257.05,9.257,224.607,0,190,0l54.842,94.988L284.996,25.423z"/>
	<path id="XMLID_860_" style="fill:#99EFF2;" d="M299.697,190l54.83,94.971l0.049,0.028C370.742,257.052,380,224.608,380,190
		H299.697z"/>
	<path id="XMLID_861_" style="fill:#FFDA44;" d="M135.151,285H25.456l0.017-0.029l-0.049,0.028
		c16.687,28.844,40.736,52.893,69.58,69.578l40.154-69.565L135.151,285z"/>
	<path id="XMLID_862_" style="fill:#64C37D;" d="M354.544,285H244.849l-0.007,0.012l40.154,69.565
		c28.844-16.685,52.893-40.734,69.58-69.578l-0.049-0.028L354.544,285z"/>
	<path id="XMLID_863_" style="fill:#00D7DF;" d="M299.697,190H380c0-34.608-9.258-67.052-25.424-94.999l-0.049,0.028L299.697,190z"
		/>
	<path id="XMLID_864_" style="fill:#FF9811;" d="M95.004,354.577C122.95,370.743,155.394,380,190,380l-54.842-94.988L95.004,354.577
		z"/>
	<path id="XMLID_865_" style="fill:#91DC5A;" d="M190,380c34.606,0,67.05-9.257,94.996-25.423l-40.154-69.565L190,380z"/>
</g>
<g>
</g>
<g>
</g>
<g>
</g>
<g>
</g>
<g>
</g>
<g>
</g>
<g>
</g>
<g>
</g>
<g>
</g>
<g>
</g>
<g>
</g>
<g>
</g>
<g>
</g>
<g>
</g>
<g>
</g>
</svg>
